<svg width="154" height="47" viewBox="0 0 154 47" fill="none" xmlns="http://www.w3.org/2000/svg">
<g clip-path="url(#clip0_44_10)">
<path fill-rule="evenodd" clip-rule="evenodd" d="M95.4826 36.4894C86.588 43.0434 73.6503 46.5352 62.4916 46.5352C46.8586 46.5352 32.8429 40.7871 22.1693 31.2248C21.3607 30.4727 22.0615 29.452 23.0857 30.043C34.5679 36.7043 48.7454 40.6797 63.408 40.6797C73.273 40.6797 84.1622 38.6383 94.1888 34.3943C95.6982 33.8034 96.9381 35.415 95.4826 36.4894Z" fill="#CFCFDE"/>
<path fill-rule="evenodd" clip-rule="evenodd" d="M99.2021 32.2455C98.0701 30.795 91.6552 31.5471 88.7981 31.9232C87.9356 32.0306 87.7739 31.2785 88.5825 30.7413C93.7037 27.142 102.059 28.2164 103.03 29.3983C104 30.5802 102.76 38.9606 97.9623 42.9359C97.2076 43.5268 96.5068 43.2045 96.8302 42.3987C97.9084 39.7127 100.334 33.7497 99.2021 32.2455Z" fill="#CFCFDE"/>
<path fill-rule="evenodd" clip-rule="evenodd" d="M88.9599 5.49264V2.0008C88.9599 1.46359 89.3372 1.14126 89.8224 1.14126H105.455C105.941 1.14126 106.372 1.51731 106.372 2.0008V4.95543C106.372 5.43892 105.941 6.08357 105.186 7.15798L97.0998 18.6542C100.119 18.6005 103.299 19.0302 105.994 20.5344C106.587 20.8567 106.749 21.3939 106.803 21.8774V25.5842C106.803 26.1214 106.264 26.7123 105.671 26.39C100.873 23.8651 94.4584 23.5965 89.1755 26.4437C88.6365 26.7123 88.0435 26.1751 88.0435 25.6379V22.0923C88.0435 21.5551 88.0435 20.5881 88.6365 19.7286L98.0163 6.35217H89.8763C89.3912 6.35217 88.9599 5.97612 88.9599 5.49264ZM31.9804 27.142H27.2366C26.8053 27.0883 26.428 26.766 26.3741 26.3362V2.05452C26.3741 1.57104 26.8053 1.19499 27.2905 1.19499H31.7108C32.196 1.19499 32.5195 1.57103 32.5734 2.0008V5.17031H32.6812C33.8132 2.10824 36.0234 0.657781 38.9344 0.657781C41.8992 0.657781 43.786 2.10824 45.0797 5.17031C46.2118 2.10824 48.8532 0.657781 51.6564 0.657781C53.6509 0.657781 55.8072 1.46359 57.1549 3.34381C58.6643 5.3852 58.3408 8.33984 58.3408 10.9722V26.3362C58.3408 26.8197 57.9096 27.1958 57.4244 27.1958H52.7345C52.2494 27.1421 51.872 26.766 51.872 26.3362V13.4433C51.872 12.4226 51.9798 9.844 51.7642 8.87703C51.3868 7.26541 50.3626 6.78193 48.961 6.78193C47.829 6.78193 46.5891 7.53403 46.104 8.7696C45.6188 10.0052 45.6727 12.0466 45.6727 13.4433V26.3362C45.6727 26.8197 45.2415 27.1958 44.7563 27.1958H40.0125C39.5273 27.1421 39.15 26.766 39.15 26.3362V13.4433C39.15 10.7573 39.5812 6.72821 36.239 6.72821C32.8429 6.72821 32.9507 10.5961 32.9507 13.4433V26.3362C32.8968 26.766 32.5195 27.142 31.9804 27.142ZM119.849 0.657781C126.91 0.657781 130.738 6.67449 130.738 14.3565C130.738 21.77 126.533 27.6793 119.849 27.6793C112.948 27.6793 109.175 21.6626 109.175 14.1417C109.121 6.56705 112.948 0.657781 119.849 0.657781ZM119.849 5.65379C116.345 5.65379 116.129 10.4349 116.129 13.3896C116.129 16.3442 116.075 22.6832 119.795 22.6832C123.46 22.6832 123.676 17.5798 123.676 14.464C123.676 12.4226 123.568 9.95146 122.975 8.01752C122.436 6.29845 121.358 5.65379 119.849 5.65379ZM139.848 27.142H135.104C134.619 27.0883 134.242 26.7123 134.242 26.2825V1.94707C134.296 1.51731 134.673 1.14126 135.158 1.14126H139.578C140.01 1.14126 140.333 1.4636 140.441 1.83964V5.54636H140.549C141.896 2.21568 143.729 0.657781 147.018 0.657781C149.12 0.657781 151.222 1.40986 152.57 3.50497C153.81 5.43891 153.81 8.71587 153.81 11.0796V26.39C153.756 26.8197 153.379 27.142 152.893 27.142H148.15C147.718 27.0883 147.341 26.766 147.287 26.39V13.1747C147.287 10.4887 147.611 6.62078 144.322 6.62078C143.19 6.62078 142.112 7.37287 141.573 8.55472C140.926 10.0589 140.818 11.5093 140.818 13.1747V26.2825C140.764 26.766 140.333 27.142 139.848 27.142ZM76.5074 15.5384C76.5074 17.3649 76.5613 18.9228 75.6449 20.5881C74.8902 21.9312 73.7043 22.737 72.3566 22.737C70.5238 22.737 69.4456 21.3402 69.4456 19.2988C69.4456 15.2698 73.0574 14.5177 76.5074 14.5177V15.5384ZM81.3051 27.0883C80.9817 27.3569 80.5504 27.4107 80.1731 27.1958C78.6098 25.9065 78.2863 25.2618 77.4238 24.0263C74.8363 26.6586 72.9496 27.4644 69.6073 27.4644C65.6182 27.4644 62.4916 24.9932 62.4916 20.1047C62.4916 16.2368 64.594 13.6582 67.5589 12.3689C70.1464 11.2407 73.7582 11.0259 76.5074 10.7035V10.1126C76.5074 8.98448 76.6152 7.64147 75.9144 6.6745C75.3215 5.81497 74.2433 5.43891 73.273 5.43891C71.4402 5.43891 69.823 6.35218 69.4456 8.28612C69.3378 8.71588 69.0683 9.14564 68.637 9.14564L64.0549 8.66215C63.6776 8.55471 63.2463 8.28612 63.3542 7.69519C64.4323 2.10824 69.4456 0.442902 73.9738 0.442902C76.2918 0.442902 79.3106 1.03383 81.1434 2.80661C83.4614 4.95543 83.2458 7.85635 83.2458 10.9722V18.3319C83.2458 20.5344 84.1622 21.5014 85.0247 22.737C85.3481 23.1667 85.402 23.7039 85.0247 23.9725C84.0005 24.7783 82.2755 26.2825 81.3051 27.0883ZM14.245 15.5384C14.245 17.3649 14.2989 18.9228 13.3825 20.5881C12.6278 21.9312 11.4419 22.737 10.0942 22.737C8.26137 22.737 7.18324 21.3402 7.18324 19.2988C7.18324 15.2698 10.795 14.5177 14.245 14.5177V15.5384ZM18.9888 27.0883C18.6654 27.3569 18.2341 27.4107 17.8568 27.1958C16.2935 25.9065 15.9701 25.2618 15.1075 24.0263C12.52 26.6586 10.6333 27.4644 7.29105 27.4644C3.30195 27.4644 0.175354 24.9932 0.175354 20.1047C0.175354 16.2368 2.27772 13.6582 5.24259 12.3689C7.83012 11.2407 11.4419 11.0259 14.1911 10.7035V10.1126C14.1911 8.98448 14.2989 7.64147 13.5982 6.6745C13.0052 5.81497 11.927 5.43891 10.9567 5.43891C9.12389 5.43891 7.50668 6.35218 7.12933 8.28612C7.02152 8.71588 6.75198 9.14564 6.32073 9.14564L1.73865 8.66215C1.3613 8.55471 0.930053 8.28612 1.03787 7.69519C2.116 2.10824 7.12934 0.442902 11.6575 0.442902C13.9755 0.442902 16.9943 1.03383 18.8271 2.80661C21.1451 4.95543 20.9295 7.85635 20.9295 10.9722V18.3319C20.9295 20.5344 21.8459 21.5014 22.7084 22.737C23.0319 23.1667 23.0858 23.7039 22.7084 23.9725C21.6842 24.7783 19.9592 26.2825 18.9888 27.0883Z" fill="#CFCFDE"/>
</g>
<defs>
<clipPath id="clip0_44_10">
<rect width="153.641" height="46.0923" fill="white" transform="matrix(-1 0 0 -1 153.813 46.5352)"/>
</clipPath>
</defs>
</svg>
