<svg width="150" height="83" viewBox="0 0 150 83" fill="none" xmlns="http://www.w3.org/2000/svg">
<path d="M37.2574 3.24264C39.6005 0.899499 43.3995 0.899495 45.7426 3.24264L78.7574 36.2574C81.1005 38.6005 81.1005 42.3995 78.7574 44.7426L45.7426 77.7574C43.3995 80.1005 39.6005 80.1005 37.2574 77.7574L4.24264 44.7426C1.8995 42.3995 1.8995 38.6005 4.24264 36.2574L37.2574 3.24264Z" fill="#FBA333"/>
<path d="M31.112 51.224C29.4693 51.224 27.9973 50.9573 26.696 50.424C25.3947 49.8907 24.3493 49.1013 23.56 48.056C22.792 47.0107 22.3867 45.752 22.344 44.28H28.168C28.2533 45.112 28.5413 45.752 29.032 46.2C29.5227 46.6267 30.1627 46.84 30.952 46.84C31.7627 46.84 32.4027 46.6587 32.872 46.296C33.3413 45.912 33.576 45.3893 33.576 44.728C33.576 44.1733 33.384 43.7147 33 43.352C32.6373 42.9893 32.1787 42.6907 31.624 42.456C31.0907 42.2213 30.3227 41.9547 29.32 41.656C27.8693 41.208 26.6853 40.76 25.768 40.312C24.8507 39.864 24.0613 39.2027 23.4 38.328C22.7387 37.4533 22.408 36.312 22.408 34.904C22.408 32.8133 23.1653 31.1813 24.68 30.008C26.1947 28.8133 28.168 28.216 30.6 28.216C33.0747 28.216 35.0693 28.8133 36.584 30.008C38.0987 31.1813 38.9093 32.824 39.016 34.936H33.096C33.0533 34.2107 32.7867 33.6453 32.296 33.24C31.8053 32.8133 31.176 32.6 30.408 32.6C29.7467 32.6 29.2133 32.7813 28.808 33.144C28.4027 33.4853 28.2 33.9867 28.2 34.648C28.2 35.3733 28.5413 35.9387 29.224 36.344C29.9067 36.7493 30.9733 37.1867 32.424 37.656C33.8747 38.1467 35.048 38.616 35.944 39.064C36.8613 39.512 37.6507 40.1627 38.312 41.016C38.9733 41.8693 39.304 42.968 39.304 44.312C39.304 45.592 38.9733 46.7547 38.312 47.8C37.672 48.8453 36.7333 49.6773 35.496 50.296C34.2587 50.9147 32.7973 51.224 31.112 51.224ZM54.8635 51L49.4235 43.512V51H43.9515V27.32H49.4235V40.408L54.8315 33.144H61.5835L54.1595 42.104L61.6475 51H54.8635ZM67.7648 31.288C66.8048 31.288 66.0154 31.0107 65.3968 30.456C64.7994 29.88 64.5008 29.176 64.5008 28.344C64.5008 27.4907 64.7994 26.7867 65.3968 26.232C66.0154 25.656 66.8048 25.368 67.7648 25.368C68.7034 25.368 69.4714 25.656 70.0688 26.232C70.6874 26.7867 70.9968 27.4907 70.9968 28.344C70.9968 29.176 70.6874 29.88 70.0688 30.456C69.4714 31.0107 68.7034 31.288 67.7648 31.288ZM70.4848 33.144V51H65.0128V33.144H70.4848ZM81.2023 27.32V51H75.7303V27.32H81.2023ZM91.9197 27.32V51H86.4477V27.32H91.9197ZM99.9173 31.288C98.9573 31.288 98.1679 31.0107 97.5493 30.456C96.9519 29.88 96.6533 29.176 96.6533 28.344C96.6533 27.4907 96.9519 26.7867 97.5493 26.232C98.1679 25.656 98.9573 25.368 99.9173 25.368C100.856 25.368 101.624 25.656 102.221 26.232C102.84 26.7867 103.149 27.4907 103.149 28.344C103.149 29.176 102.84 29.88 102.221 30.456C101.624 31.0107 100.856 31.288 99.9173 31.288ZM102.637 33.144V51H97.1653V33.144H102.637ZM118.763 32.952C120.853 32.952 122.517 33.6347 123.755 35C125.013 36.344 125.643 38.2 125.643 40.568V51H120.203V41.304C120.203 40.1093 119.893 39.1813 119.275 38.52C118.656 37.8587 117.824 37.528 116.779 37.528C115.733 37.528 114.901 37.8587 114.283 38.52C113.664 39.1813 113.355 40.1093 113.355 41.304V51H107.883V33.144H113.355V35.512C113.909 34.7227 114.656 34.104 115.595 33.656C116.533 33.1867 117.589 32.952 118.763 32.952ZM147.557 41.784C147.557 42.296 147.525 42.8293 147.461 43.384H135.077C135.163 44.4933 135.515 45.3467 136.133 45.944C136.773 46.52 137.552 46.808 138.469 46.808C139.835 46.808 140.784 46.232 141.317 45.08H147.141C146.843 46.2533 146.299 47.3093 145.509 48.248C144.741 49.1867 143.771 49.9227 142.597 50.456C141.424 50.9893 140.112 51.256 138.661 51.256C136.912 51.256 135.355 50.8827 133.989 50.136C132.624 49.3893 131.557 48.3227 130.789 46.936C130.021 45.5493 129.637 43.928 129.637 42.072C129.637 40.216 130.011 38.5947 130.757 37.208C131.525 35.8213 132.592 34.7547 133.957 34.008C135.323 33.2613 136.891 32.888 138.661 32.888C140.389 32.888 141.925 33.2507 143.269 33.976C144.613 34.7013 145.659 35.736 146.405 37.08C147.173 38.424 147.557 39.992 147.557 41.784ZM141.957 40.344C141.957 39.4053 141.637 38.6587 140.997 38.104C140.357 37.5493 139.557 37.272 138.597 37.272C137.68 37.272 136.901 37.5387 136.261 38.072C135.643 38.6053 135.259 39.3627 135.109 40.344H141.957Z" fill="#2F327D"/>
</svg>
