<svg width="152" height="41" viewBox="0 0 152 41" fill="none" xmlns="http://www.w3.org/2000/svg">
<g clip-path="url(#clip0_44_3)">
<path d="M143.28 19.5213L151.376 40.8142C148.99 40.4757 146.606 40.0517 144.178 39.6697L139.617 27.9045L134.931 38.6985C132.631 38.3164 130.372 38.1892 128.072 37.8926L136.294 19.2682L128.836 0.178986H135.739L139.914 10.8444L144.389 0.178986H151.375L143.28 19.5213ZM123.386 0.178986H117.122V37.0893C119.168 37.2167 121.297 37.3006 123.386 37.5539V0.178986ZM111.711 36.6654C106.003 36.2847 100.293 35.9476 94.4559 35.8189V0.179149H100.846V29.8088C104.511 29.8929 108.174 30.1882 111.711 30.3574V36.6654ZM87.6376 14.6139V20.9625H78.9038V35.3961H72.5995V0.178986H90.4939V6.52754H78.9051V14.6141H87.6389L87.6376 14.6139ZM61.8614 6.52754V35.7348C59.7304 35.7348 57.5587 35.7348 55.4698 35.8189V6.52754H48.8657V0.178986H68.5064V6.52754H61.8614ZM41.9642 21.2999C39.1528 21.2999 35.8288 21.2999 33.4429 21.4286V30.8667C37.1922 30.6121 40.9415 30.3167 44.733 30.1895V36.2848L27.0527 37.6826V0.178986H44.7318V6.52754H33.4428V15.0785C35.9146 15.0785 39.7062 14.9513 41.9639 14.9513V21.3012L41.9642 21.2999ZM6.55677 17.7442V39.9243C4.2581 40.1789 2.2116 40.4755 0.0396729 40.8142V0.178986H6.13276L14.4401 23.2491V0.178986H20.8316V38.1892C18.5737 38.5712 16.2724 38.6985 13.8442 39.0358L6.55677 17.7442Z" fill="#CFCFDE"/>
</g>
<defs>
<clipPath id="clip0_44_3">
<rect width="151.336" height="40.7149" fill="white" transform="translate(0.0396729 0.138275)"/>
</clipPath>
</defs>
</svg>
